<?xml version="1.0" encoding="utf-8"?>
<!-- Generator: Adobe Illustrator 17.1.0, SVG Export Plug-In . SVG Version: 6.00 Build 0)  -->
<!DOCTYPE svg PUBLIC "-//W3C//DTD SVG 1.1//EN" "http://www.w3.org/Graphics/SVG/1.1/DTD/svg11.dtd">
<svg version="1.1" id="Layer_1" xmlns="http://www.w3.org/2000/svg" xmlns:xlink="http://www.w3.org/1999/xlink" x="0px" y="0px"
	 viewBox="0 0 32 32" enable-background="new 0 0 32 32" xml:space="preserve">
<path fill="#FFFFFF" d="M28,2h-6c-1.1,0-2,0.9-2,2s0.9,2,2,2h1.2l-4.6,4.6C18.3,10.9,18,11.3,18,12c0,1.1,0.9,2,2,2
	c0.6,0,1-0.2,1.4-0.6L26,8.8V10c0,1.1,0.9,2,2,2s2-0.9,2-2V4C30,2.9,29.1,2,28,2z M12,18c-0.6,0-1,0.2-1.4,0.6L6,23.2V22
	c0-1.1-0.9-2-2-2s-2,0.9-2,2v6c0,1.1,0.9,2,2,2h6c1.1,0,2-0.9,2-2s-0.9-2-2-2H8.8l4.6-4.6c0.3-0.3,0.6-0.7,0.6-1.4
	C14,18.9,13.1,18,12,18z"/>
</svg>
