<?xml version="1.0" encoding="utf-8"?>
<!-- Generator: Adobe Illustrator 17.1.0, SVG Export Plug-In . SVG Version: 6.00 Build 0)  -->
<!DOCTYPE svg PUBLIC "-//W3C//DTD SVG 1.1//EN" "http://www.w3.org/Graphics/SVG/1.1/DTD/svg11.dtd">
<svg version="1.1" id="Layer_1" xmlns="http://www.w3.org/2000/svg" xmlns:xlink="http://www.w3.org/1999/xlink" x="0px" y="0px"
	 viewBox="0 0 32 32" enable-background="new 0 0 32 32" xml:space="preserve">
<path fill="#FFFFFF" d="M12,18H6c-1.1,0-2,0.9-2,2s0.9,2,2,2h1.2l-4.6,4.6C2.3,26.9,2,27.3,2,28c0,1.1,0.9,2,2,2
	c0.6,0,1-0.2,1.4-0.6l4.6-4.6V26c0,1.1,0.9,2,2,2s2-0.9,2-2v-6C14,18.9,13.1,18,12,18z M28,2c-0.6,0-1,0.2-1.4,0.6L22,7.2V6
	c0-1.1-0.9-2-2-2s-2,0.9-2,2v6c0,1.1,0.9,2,2,2h6c1.1,0,2-0.9,2-2s-0.9-2-2-2h-1.2l4.6-4.6C29.7,5.1,30,4.7,30,4C30,2.9,29.1,2,28,2
	z"/>
</svg>
